<mxfile host="Electron" modified="2024-03-05T15:46:12.909Z" agent="Mozilla/5.0 (Windows NT 10.0; Win64; x64) AppleWebKit/537.36 (KHTML, like Gecko) draw.io/23.1.5 Chrome/120.0.6099.109 Electron/28.1.0 Safari/537.36" etag="i7R0sGYMj5xuYHCvjl6U" version="23.1.5" type="device">
  <diagram name="Page-1" id="tuLd8cSAwtY4dUXWm7uf">
    <mxGraphModel dx="1434" dy="844" grid="1" gridSize="10" guides="1" tooltips="1" connect="1" arrows="1" fold="1" page="1" pageScale="1" pageWidth="827" pageHeight="1169" math="0" shadow="0">
      <root>
        <mxCell id="0" />
        <mxCell id="1" parent="0" />
        <mxCell id="WixMWgGIbutMQsAU0jle-2" value="" style="verticalLabelPosition=bottom;verticalAlign=top;html=1;shadow=0;dashed=0;strokeWidth=1;shape=mxgraph.android.phone2;strokeColor=#c0c0c0;container=0;" vertex="1" parent="1">
          <mxGeometry x="180" y="80" width="360" height="740" as="geometry" />
        </mxCell>
        <mxCell id="WixMWgGIbutMQsAU0jle-5" value="" style="strokeWidth=1;shadow=0;dashed=0;align=center;html=1;shape=mxgraph.mockup.containers.browserWindow;rSize=0;strokeColor=#666666;strokeColor2=#008cff;strokeColor3=#c4c4c4;mainText=,;recursiveResize=0;container=0;" vertex="1" parent="1">
          <mxGeometry x="192" y="143.5" width="336" height="613" as="geometry" />
        </mxCell>
        <mxCell id="WixMWgGIbutMQsAU0jle-6" value="Page 1" style="strokeWidth=1;shadow=0;dashed=0;align=center;html=1;shape=mxgraph.mockup.containers.anchor;fontSize=17;fontColor=#666666;align=left;whiteSpace=wrap;container=0;" vertex="1" parent="1">
          <mxGeometry x="252" y="155.5" width="110" height="26" as="geometry" />
        </mxCell>
        <mxCell id="WixMWgGIbutMQsAU0jle-7" value="https://www.draw.io" style="strokeWidth=1;shadow=0;dashed=0;align=center;html=1;shape=mxgraph.mockup.containers.anchor;rSize=0;fontSize=17;fontColor=#666666;align=left;container=0;" vertex="1" parent="1">
          <mxGeometry x="322" y="203.5" width="250" height="26" as="geometry" />
        </mxCell>
      </root>
    </mxGraphModel>
  </diagram>
</mxfile>
